P1
5 6
11111
10101
11111
10101
10001
11111